# xmcd
#
# Track frame offsets: 
#        150
#        14317
#        23041
#        36945
#        47479
#        57718
#        70300
#        83038
#        94661
#        105460
#        120047
#        132337
#        146272
#        159830
#        169948
#        181503
#        191035
#        201392
#
# Disc length: 2813 seconds
#
# Revision: 0
# Processed by: cddbd v1.5.2PL0 Copyright (c) Steve Scherf et al.
# Submitted via: ExactAudioCopy v0.99pb5
#
DISCID=e60afb12
DTITLE=Rat Pack  - Dean Martin - Disc 2  FLAC
DYEAR=1900
DGENRE=
TTITLE0=That's Amore
TTITLE1=If The Sun Don't Shine
TTITLE2=Bye Bye Blackbird
TTITLE3=Mambo Italiano
TTITLE4=Pennies Form Heaven
TTITLE5=How Do You Like Your Eggs?
TTITLE6=Wham Bam
TTITLE7=I'll Always Love You
TTITLE8=Kiss
TTITLE9=Sorrento
TTITLE10=Sway
TTITLE11=Muskart Gamble
TTITLE12=Cool Of The Evening
TTITLE13=Zing a Zing
TTITLE14=Smile Smile Smile
TTITLE15=Luna Mezzo Mare
TTITLE16=Memories Are Made Of This
TTITLE17=Watching The World Go By
EXTD=
EXTT0=
EXTT1=
EXTT2=
EXTT3=
EXTT4=
EXTT5=
EXTT6=
EXTT7=
EXTT8=
EXTT9=
EXTT10=
EXTT11=
EXTT12=
EXTT13=
EXTT14=
EXTT15=
EXTT16=
EXTT17=
PLAYORDER=
